HIERARCHY
ROOT SpineBase
{
  OFFSET 0.000000 0.000000 0.000000
  CHANNELS 6 Xposition Yposition Zposition Zrotation Xrotation Yrotation
  JOINT SpineMid
  {
    OFFSET 0.000000 32.092682 0.000000
    CHANNELS 3 Zrotation Xrotation Yrotation
    JOINT SpineShoulder
    {
      OFFSET 0.162557 23.882133 -0.719089
      CHANNELS 3 Zrotation Xrotation Yrotation
      JOINT Neck
      {
        OFFSET 0.120884 7.908996 -0.578804
        CHANNELS 3 Zrotation Xrotation Yrotation
        JOINT Head
        {
          OFFSET -4.953244 14.487595 -0.948772
          CHANNELS 3 Zrotation Xrotation Yrotation
          End Site
          {
            OFFSET 0 0 0
          }
        }
      }
      JOINT ShoulderLeft
      {
        OFFSET -18.377153 -6.351281 5.540834
        CHANNELS 3 Zrotation Xrotation Yrotation
        JOINT ElbowLeft
        {
          OFFSET -1.649087 -27.187364 0.990904
          CHANNELS 3 Zrotation Xrotation Yrotation
          JOINT WristLeft
          {
            OFFSET 0.069771 -20.173902 -5.798849
            CHANNELS 3 Zrotation Xrotation Yrotation
            JOINT HandLeft
            {
              OFFSET 0.939395 -6.674977 -2.747249
              CHANNELS 3 Zrotation Xrotation Yrotation
              JOINT HandTipLeft
              {
                OFFSET 3.285410 -7.101825 -4.142360
                CHANNELS 3 Zrotation Xrotation Yrotation
                End Site
                {
                  OFFSET 0 0 0
                }
              }
              JOINT ThumbLeft
              {
                OFFSET -2.507129 -1.687224 -3.683675
                CHANNELS 3 Zrotation Xrotation Yrotation
                End Site
                {
                  OFFSET 0 0 0
                }
              }
            }
          }
        }
      }
      JOINT ShoulderRight
      {
        OFFSET 15.686817 -2.828598 -7.447601
        CHANNELS 3 Zrotation Xrotation Yrotation
        JOINT ElbowRight
        {
          OFFSET 9.827980 -22.160631 -0.580018
          CHANNELS 3 Zrotation Xrotation Yrotation
          JOINT WristRight
          {
            OFFSET -24.754786 -9.868732 -13.650712
            CHANNELS 3 Zrotation Xrotation Yrotation
            JOINT HandRight
            {
              OFFSET -4.424571 -0.610428 1.779420
              CHANNELS 3 Zrotation Xrotation Yrotation
              JOINT HandTipRight
              {
                OFFSET -5.341391 -1.706558 1.254129
                CHANNELS 3 Zrotation Xrotation Yrotation
                End Site
                {
                  OFFSET 0 0 0
                }
              }
              JOINT ThumbRight
              {
                OFFSET 1.451175 -6.450174 1.557843
                CHANNELS 3 Zrotation Xrotation Yrotation
                End Site
                {
                  OFFSET 0 0 0
                }
              }
            }
          }
        }
      }
    }
  }
  JOINT HipLeft
  {
    OFFSET -6.041694 0.003706 -1.596496
    CHANNELS 3 Zrotation Xrotation Yrotation
    JOINT KneeLeft
    {
      OFFSET -0.458412 -34.750595 3.370963
      CHANNELS 3 Zrotation Xrotation Yrotation
      JOINT AnkleLeft
      {
        OFFSET 1.266184 -36.054163 7.042693
        CHANNELS 3 Zrotation Xrotation Yrotation
        JOINT FootLeft
        {
          OFFSET -1.386739 -7.902997 -6.167118
          CHANNELS 3 Zrotation Xrotation Yrotation
          End Site
          {
            OFFSET 0 0 0
          }
        }
      }
    }
  }
  JOINT HipRight
  {
    OFFSET 7.537905 1.976725 -5.554452
    CHANNELS 3 Zrotation Xrotation Yrotation
    JOINT KneeRight
    {
      OFFSET 8.533965 -34.397883 -0.119130
      CHANNELS 3 Zrotation Xrotation Yrotation
      JOINT AnkleRight
      {
        OFFSET 2.434772 -36.593616 5.800613
        CHANNELS 3 Zrotation Xrotation Yrotation
        JOINT FootRight
        {
          OFFSET -3.146213 -3.495016 -13.458171
          CHANNELS 3 Zrotation Xrotation Yrotation
          End Site
          {
            OFFSET 0 0 0
          }
        }
      }
    }
  }
}
MOTION
Frames: 9
Frame Time: 0.033333
-69.191009 76.511317 325.881005 3.664002 -0.790217 14.818322 -0.042780 -0.380985 -14.661445 -0.171601 -0.050660 0.161674 7.796927 -17.195057 -4.055595 0.000000 0.000000 0.000000 -11.561463 20.087015 -0.179764 112.487675 76.156734 -91.512529 35.217344 12.113632 30.669778 -5.856329 -25.855464 17.810228 0.000000 0.000000 0.000000 0.000000 0.000000 0.000000 8.601483 44.715542 13.748299 -56.163530 -17.953267 -16.867305 8.802023 -8.156938 -40.452859 3.841158 -0.210106 15.806581 0.000000 0.000000 0.000000 0.000000 0.000000 0.000000 -3.341410 1.699047 -14.743485 -0.000000 0.000000 0.000000 4.511475 2.008731 -3.925878 0.000000 0.000000 0.000000 -4.192701 3.323028 -14.364949 1.227484 -1.361668 -0.326648 0.962823 -3.103245 -0.999040 0.000000 0.000000 0.000000
-69.199620 76.608045 325.858270 3.669840 -0.779860 15.009884 -0.064762 -0.363973 -14.854225 -0.167794 -0.046613 0.160713 7.933301 -17.309344 -4.045311 0.000000 0.000000 0.000000 -11.674266 20.135559 -0.162671 112.369378 76.206478 -91.265929 36.648423 11.326986 31.804726 -6.100137 -29.021827 18.361205 0.000000 0.000000 0.000000 0.000000 0.000000 0.000000 8.730260 44.759739 13.725106 -56.096360 -18.639295 -16.610588 6.691559 -7.418867 -40.524327 9.594607 2.901942 15.277328 0.000000 0.000000 0.000000 0.000000 0.000000 0.000000 -3.344026 1.701721 -14.935222 -0.000000 0.000000 0.000000 4.477006 3.127813 -4.105593 0.000000 0.000000 0.000000 -4.211429 3.248393 -14.577170 1.228610 -1.278241 -0.306883 0.427078 -0.989484 -0.778594 0.000000 0.000000 0.000000
-69.208924 76.706396 325.831721 3.681657 -0.770112 15.238049 -0.081990 -0.356271 -15.082862 -0.160633 -0.049347 0.160937 8.016692 -17.438104 -4.053227 0.000000 0.000000 0.000000 -11.741364 20.221375 -0.153341 112.088691 76.253066 -90.912785 36.702221 9.812626 32.293939 2.120565 -31.809965 23.528036 0.000000 0.000000 0.000000 0.000000 0.000000 0.000000 8.735289 44.866462 13.765667 -56.059056 -18.724128 -16.795037 6.801896 -7.276414 -40.841097 10.363299 3.425813 15.289895 0.000000 0.000000 0.000000 0.000000 0.000000 0.000000 -3.351189 1.708718 -15.163309 -0.000000 0.000000 0.000000 5.065210 1.666159 -4.303840 0.000000 0.000000 0.000000 -4.211912 3.157589 -14.830568 1.202716 -1.179989 -0.283811 -0.220248 1.502498 -0.476735 0.000000 0.000000 0.000000
-69.220218 76.786930 325.809729 3.697667 -0.757970 15.489662 -0.088420 -0.355280 -15.334412 -0.140419 -0.049311 0.162599 7.979919 -17.592679 -4.087670 0.000000 0.000000 0.000000 -11.727516 20.378861 -0.162197 111.392045 76.305582 -90.237367 37.744435 10.201764 32.846200 -1.392386 -33.949117 22.291262 0.000000 0.000000 0.000000 0.000000 0.000000 0.000000 8.768522 44.848057 13.733000 -56.053863 -18.595012 -16.907995 7.189117 -7.178337 -41.457797 9.032520 3.050972 15.237011 0.000000 0.000000 0.000000 0.000000 0.000000 0.000000 -3.999596 2.299122 -15.472293 0.769452 -0.391935 0.082423 4.291743 4.076550 -4.129697 0.000000 0.000000 0.000000 -4.196463 3.062358 -15.108204 1.156005 -1.082162 -0.260929 -0.222660 1.452927 -0.426221 0.000000 0.000000 0.000000
-69.212861 76.883197 325.770788 3.741281 -0.731262 15.738288 -0.099661 -0.358302 -15.582350 -0.115468 -0.054265 0.165763 7.854663 -17.741102 -4.133621 0.000000 0.000000 0.000000 -11.966517 20.163152 -0.143337 112.385308 76.264841 -91.085374 39.514001 9.864255 34.095675 -1.080930 -42.506876 25.390613 0.000000 0.000000 0.000000 0.000000 0.000000 0.000000 8.766072 44.732575 13.669415 -55.971383 -18.405283 -16.969269 6.984804 -6.469070 -43.658443 6.929113 1.760043 17.014851 0.000000 0.000000 0.000000 0.000000 0.000000 0.000000 -4.116581 2.371860 -15.727446 0.863112 -0.437440 0.092768 1.786043 12.696639 -3.531470 0.000000 0.000000 0.000000 -4.262128 2.964577 -15.382935 1.158079 -0.975333 -0.235551 0.421044 -0.944471 -0.795475 0.000000 0.000000 0.000000
-69.200450 76.936158 325.740121 3.785799 -0.723624 15.910883 -0.096283 -0.362837 -15.753201 -0.082324 -0.061496 0.170378 7.629305 -17.813419 -4.187821 0.000000 0.000000 0.000000 -12.279361 19.916503 -0.116566 113.624236 76.210219 -92.137757 40.514466 10.095143 34.674831 -2.371009 -44.935706 25.589879 0.000000 0.000000 0.000000 0.000000 0.000000 0.000000 8.697494 44.680555 13.637417 -55.635622 -18.196730 -17.341312 4.926120 -5.417878 -45.710052 4.164583 -0.189051 18.654897 0.000000 0.000000 0.000000 0.000000 0.000000 0.000000 -4.224744 2.472462 -15.905312 0.953670 -0.498244 0.103199 0.292628 17.452042 -3.000654 0.000000 0.000000 0.000000 -4.348044 2.951454 -15.563123 1.198013 -0.932131 -0.225088 0.966871 -2.958339 -1.158497 0.000000 0.000000 0.000000
-69.191660 76.963278 325.709786 3.812881 -0.718553 15.937610 -0.085115 -0.370026 -15.778562 -0.065422 -0.065032 0.173367 7.441659 -17.850780 -4.229580 0.000000 0.000000 0.000000 -12.619085 19.561520 -0.083242 115.317083 76.115516 -93.606514 39.683665 9.267025 34.393876 -1.883413 -42.876993 24.842953 0.000000 0.000000 0.000000 0.000000 0.000000 0.000000 8.722285 44.546638 13.546699 -55.903318 -17.887163 -17.106422 6.154853 -4.826416 -48.554347 1.326192 -2.546555 20.462495 0.000000 0.000000 0.000000 0.000000 0.000000 0.000000 -4.304251 2.524509 -15.935795 1.017900 -0.529257 0.110390 -0.681108 20.291608 -2.581214 0.000000 0.000000 0.000000 -4.424082 2.963082 -15.588661 1.247996 -0.925499 -0.223262 1.385995 -4.475403 -1.493165 0.000000 0.000000 0.000000
-69.198118 76.976654 325.692331 3.819866 -0.741264 15.941909 -0.064649 -0.360442 -15.781796 -0.055295 -0.066374 0.175203 7.305387 -17.824636 -4.251489 0.000000 0.000000 0.000000 -12.649767 19.429349 -0.086673 115.834217 76.055865 -94.142662 38.796888 9.202216 33.834269 -0.895278 -43.849988 25.695412 0.000000 0.000000 0.000000 0.000000 0.000000 0.000000 8.648900 44.529955 13.552119 -55.782252 -17.635070 -17.336773 5.243191 -4.711274 -48.644085 0.244339 -3.366315 20.521324 0.000000 0.000000 0.000000 0.000000 0.000000 0.000000 -4.331637 2.617733 -15.941817 1.062916 -0.588306 0.116285 -0.353184 17.841884 -2.515295 0.000000 0.000000 0.000000 -4.437696 2.997374 -15.588770 1.263489 -0.931877 -0.224692 1.638310 -5.434522 -1.660112 0.000000 0.000000 0.000000
-69.213577 77.015099 325.674697 3.819919 -0.760961 15.988619 -0.051341 -0.350663 -15.827954 -0.042951 -0.066060 0.176493 7.172482 -17.797835 -4.273041 0.000000 0.000000 0.000000 -12.435770 19.551732 -0.119868 115.109005 76.064176 -93.625049 38.406079 9.981179 33.340805 -2.030744 -40.929911 24.169290 0.000000 0.000000 0.000000 0.000000 0.000000 0.000000 8.615370 44.544351 13.557613 -55.942506 -17.429455 -17.341533 5.834810 -4.910023 -48.809478 -0.795160 -7.219432 24.666083 0.000000 0.000000 0.000000 0.000000 0.000000 0.000000 -4.334473 2.712785 -15.989840 1.092839 -0.655225 0.120854 -0.488164 17.268738 -2.321093 0.000000 0.000000 0.000000 -4.421897 3.018046 -15.634212 1.255241 -0.932284 -0.224830 1.711603 -5.778113 -1.639657 0.000000 0.000000 0.000000
